<mxfile host="app.diagrams.net" modified="2020-07-16T15:01:17.951Z" agent="5.0 (Windows NT 10.0; Win64; x64) AppleWebKit/537.36 (KHTML, like Gecko) Chrome/83.0.4103.116 Safari/537.36" etag="YR8z0SOZKFwUaIZtGWdp" version="13.3.7" type="github">
  <diagram id="maHg7SsvtQUFNXzrpQvo" name="Page-1">
    <mxGraphModel dx="1355" dy="802" grid="1" gridSize="10" guides="1" tooltips="1" connect="1" arrows="1" fold="1" page="1" pageScale="1" pageWidth="850" pageHeight="1100" math="0" shadow="0">
      <root>
        <mxCell id="0" />
        <mxCell id="1" parent="0" />
        <mxCell id="tzyq7luY2qThDf7m2LUu-2" value="" style="rounded=1;whiteSpace=wrap;html=1;fillColor=none;align=left;" vertex="1" parent="1">
          <mxGeometry x="30" y="200" width="210" height="270" as="geometry" />
        </mxCell>
        <mxCell id="zRLsIuaNsJf3XsUWLVfJ-1" value="VM-1" style="rounded=0;whiteSpace=wrap;html=1;fillColor=#1ba1e2;strokeColor=#006EAF;fontColor=#ffffff;" parent="1" vertex="1">
          <mxGeometry x="80" y="240" width="40" height="40" as="geometry" />
        </mxCell>
        <mxCell id="zRLsIuaNsJf3XsUWLVfJ-2" value="VM-2" style="rounded=0;whiteSpace=wrap;html=1;fillColor=#e51400;strokeColor=#B20000;fontColor=#ffffff;" parent="1" vertex="1">
          <mxGeometry x="160" y="240" width="40" height="40" as="geometry" />
        </mxCell>
        <mxCell id="zRLsIuaNsJf3XsUWLVfJ-4" value="" style="rounded=0;whiteSpace=wrap;html=1;" parent="1" vertex="1">
          <mxGeometry x="80" y="320" width="120" height="100" as="geometry" />
        </mxCell>
        <mxCell id="zRLsIuaNsJf3XsUWLVfJ-5" value="br-int" style="whiteSpace=wrap;html=1;aspect=fixed;fillColor=#f5f5f5;strokeColor=#666666;fontColor=#333333;" parent="1" vertex="1">
          <mxGeometry x="120" y="330" width="40" height="40" as="geometry" />
        </mxCell>
        <mxCell id="zRLsIuaNsJf3XsUWLVfJ-6" value="br-phy-1" style="rounded=0;whiteSpace=wrap;html=1;fillColor=#1ba1e2;strokeColor=#006EAF;fontColor=#ffffff;" parent="1" vertex="1">
          <mxGeometry x="84" y="380" width="50" height="30" as="geometry" />
        </mxCell>
        <mxCell id="zRLsIuaNsJf3XsUWLVfJ-7" value="br-phy-2" style="rounded=0;whiteSpace=wrap;html=1;fillColor=#e51400;strokeColor=#B20000;fontColor=#ffffff;" parent="1" vertex="1">
          <mxGeometry x="145" y="380" width="50" height="30" as="geometry" />
        </mxCell>
        <mxCell id="tzyq7luY2qThDf7m2LUu-1" value="" style="ellipse;shape=cloud;whiteSpace=wrap;html=1;" vertex="1" parent="1">
          <mxGeometry x="260" y="460" width="260" height="150" as="geometry" />
        </mxCell>
        <mxCell id="tzyq7luY2qThDf7m2LUu-3" value="" style="rounded=1;whiteSpace=wrap;html=1;fillColor=none;" vertex="1" parent="1">
          <mxGeometry x="510" y="180" width="210" height="270" as="geometry" />
        </mxCell>
        <mxCell id="tzyq7luY2qThDf7m2LUu-4" value="VM-1" style="rounded=0;whiteSpace=wrap;html=1;fillColor=#1ba1e2;strokeColor=#006EAF;fontColor=#ffffff;" vertex="1" parent="1">
          <mxGeometry x="560" y="220" width="40" height="40" as="geometry" />
        </mxCell>
        <mxCell id="tzyq7luY2qThDf7m2LUu-5" value="VM-2" style="rounded=0;whiteSpace=wrap;html=1;fillColor=#e51400;strokeColor=#B20000;fontColor=#ffffff;" vertex="1" parent="1">
          <mxGeometry x="640" y="220" width="40" height="40" as="geometry" />
        </mxCell>
        <mxCell id="tzyq7luY2qThDf7m2LUu-6" value="" style="rounded=0;whiteSpace=wrap;html=1;" vertex="1" parent="1">
          <mxGeometry x="560" y="300" width="120" height="100" as="geometry" />
        </mxCell>
        <mxCell id="tzyq7luY2qThDf7m2LUu-7" value="br-int" style="whiteSpace=wrap;html=1;aspect=fixed;fillColor=#f5f5f5;strokeColor=#666666;fontColor=#333333;" vertex="1" parent="1">
          <mxGeometry x="600" y="310" width="40" height="40" as="geometry" />
        </mxCell>
        <mxCell id="tzyq7luY2qThDf7m2LUu-8" value="br-phy-1" style="rounded=0;whiteSpace=wrap;html=1;fillColor=#1ba1e2;strokeColor=#006EAF;fontColor=#ffffff;" vertex="1" parent="1">
          <mxGeometry x="564" y="360" width="50" height="30" as="geometry" />
        </mxCell>
        <mxCell id="tzyq7luY2qThDf7m2LUu-9" value="br-phy-2" style="rounded=0;whiteSpace=wrap;html=1;fillColor=#e51400;strokeColor=#B20000;fontColor=#ffffff;" vertex="1" parent="1">
          <mxGeometry x="625" y="360" width="50" height="30" as="geometry" />
        </mxCell>
        <mxCell id="tzyq7luY2qThDf7m2LUu-13" value="" style="shape=stencil(jVnLchw3DPyavaL4Bnl2nP9wleVoK4rkkpXX36cna44W4EyXbus1WkUCjUaDe8mffjx++f5wSeHH2+vL7w9/X7++PV7yL5eUrs+PD6/XN3y65M+X/Onby+vDb68vfz5/vf37+5ctcvv0x8tf21/454YLEsIGSuHf+YWm/7/49Rb+dH024b278J/4w/AssflwPQ8v0ocJjxL7eXiTVF14J4fpkpIJT9LieXgMUrOJz1IriU9SbSqLtEzii8Ri4qt09verqM1Ok0FKFVXUJl+lk+THIWrP06WR7CPbwaZ/SBkkPona/CDDmdQL+QvRAqKkQgBVmr0xahJISpGRHDygNwJASiyHYqacy0GSO1IRJUfKUartMNS9kbTm7Gkd2yTiMaBItXUGUzJphFxnTu4Agx1JJaoF9FmZY0CfzNkBQzLpnRIkZg9g5C5RiiUrpCgRdpcsYXgAa4dSpFi2okES6c/SfP8AwASjdAn20mipSC5dF3HfepBUukYZtnDQvETYWrOM6gFKqFHr1KwdAJUkbK0q1R2pSmGA4ekNnQxsiuxD5g7QyR0aNMLVQae0HQNADXcH9AMRstYWtuJW7EhoIJtWCE8j1NB9EO+ASKehQkltWnOi41AX9YZSMXprnaKyAwplq0KFrC7lSmVGx7ziDmiUfD16hwFpq6RwPXm2vkvbMaBIckcadCj26l3JpoUkSx1kLh7AfEPv3rRBPJUUrg9P75JolkbwTgZqmwmXBg5gWxRqGxlgUW8ABqHGKFMjdgDoSNI6qm8g6Dmzb2OR+6LUOgz1HYcB0ImQDfUGaxsAhHyjS7aVxgAorHDD93RNVO4ByM7j7q73DNBsWjExGnO5YRlyGBmR5PUI0enSc4BoYV7sw4hICXiEyLQYRwiQnDTqmlwMGmaC1vI1pXK2EgSTiWn42HeMHTBmr58BnAnCKGOjEV2R7aU1UgOBRs32SNvsY0dapAAA5vGhTmqlQLFaMnVKU+J3QJm3OlNY548xXQMbXOo9DQCVXLovS4G2ueocA/bt+Q5A1/VlE8LAL8zTLONd+6TjBw0EANTTgBrJA1hXo0yu43DIzADZSzIAg2QJZFZ76R7oNod2ycMD2OBaveW7LfqgewWATYm2vITAR7H1D1raFwBb/9alYKMj6Yfa5vTfAYWKAOZaWwBKKr3uWmgp5vzWbQ6AwXbeRSrhBSuhxrqRQhbY+0lZXBMATIxhDIs7Up9KdbboO6sIAFtsYJ89l8a02GePFe7ZDgD6QrM4cKht4i807tEUAKYa2KySvQMMMH3SCX6r3iYGe7sbc+7fAZgIpEUqMcTYrpUWqYTFZj2Ntd7RG3OVWcX1eRCAwe6wPEBi1LONNC3aCjPBLNn74/kO6HQ5W99cAVBm+obvOFiuwnzlot53vvEnAh/efx64/bKw/9/Z7wZlsSRIL5OvDwDMOb5dn57cWfDB/6yBr24/ieTP/wE=);fillColor=#1ba1e2;strokeWidth=2;strokeColor=#006EAF;fontColor=#ffffff;dashed=1;" vertex="1" parent="1">
          <mxGeometry x="103" y="280" width="38" height="102" as="geometry" />
        </mxCell>
        <mxCell id="tzyq7luY2qThDf7m2LUu-14" value="eth" style="rounded=0;whiteSpace=wrap;html=1;strokeWidth=2;fillColor=none;" vertex="1" parent="1">
          <mxGeometry x="105" y="470" width="40" height="20" as="geometry" />
        </mxCell>
        <mxCell id="tzyq7luY2qThDf7m2LUu-15" value="eth" style="rounded=0;whiteSpace=wrap;html=1;strokeWidth=2;fillColor=none;" vertex="1" parent="1">
          <mxGeometry x="600" y="450" width="40" height="20" as="geometry" />
        </mxCell>
        <mxCell id="tzyq7luY2qThDf7m2LUu-17" value="" style="shape=stencil(lVtJktw2EHzNXBHYgTrL8j8UIdlS2NYoRvL2exc8AU4zC51o3mbJJEGw1izwKb37/vnDt09P0X//8fL826e/v3z88fkp/fQU45evnz+9fPmhPz2l90/p3S/PL59+fXn+8+vH19+/fRjI8dMfz3+NK/zzyvPO+0GK/t/XP4TkQvn/Lz+/4n//8vWEzwbfKsP3fMZn1wk+uBDP+OJqZ/iYzvjqYmD4AutvLiSGb/2M73OFd/BSEC/keaMLsB5x3TM8PK/ucM0MnwAfXCb7GV0GvF6BPG90JZzxyXmy/4qviG/0ect5/2N2SRi+wvrLtPB7+Ir4Qvezwnqq843hW0B8pfvTYP1qn3Q9rSKe+UtEe46d+kt0PSC+kfhg8eIStX+LF7qfgE9+WsiDeI0w1H5gfxTP/RHeV1IP4vYJ19d4S9dfA+I73Z8C68nT4+75+zlepeIijycGz+K5xivA143/ho54IfE5zuh94Nvm+r4jvtPn9XD97hKxB43/HfEsP4b5dAdeXOT5xSOeX7+f15O9S8R+FF8QLzT/9vP6s2ZYsv+HNx14tRB+fYNn8cHik6skXlm85hdiDxZfpoU8jGfxxOIrze8W32h+t/hO/d3iheb3Fb5deV/F0/xr8WHjjxYvV+yzaAS+dP20qT8tXi5dP1/zr1Ku+ZfiWb1q8fWaf5V2zb9Kv+Zfim+X9keu+Uv1O385x8Madv5SEM/9BeJ/Vfukzwv9SE0Ub/JdzZt6EvqXqv0arU8i4OsGD/1LbbNif6yeqX1WaI/1C1Vmxnysnmye1mMJ97OFDT7B9SOtrxKuv6VpUUt8NuvJTki9kbFfa7zfKbNbOfC8fymuAb7Tfry6DPsj06KWeL37Gd897d8b6hU9UHx3NZ7xkcYrmdXXDZ7WA35u90FItMFQAkSsnl1gEUULtoIEKtHEmXEPQpmXWBMSBolep5nfI0DU6m3W7WtCxjJXCcysQ8E43bsTtqSKjt83hXfDzly0smFL6igVSOCpW7A3VALtnb3LZ+OWyJvno1c+CBrPWLcU0H2UkFn4jWZJvF4fATUigQbs5MrZgSTPmLAmZJQglRDZtuapYN0QMnnTGvQgqSmhsDsU7CqV0NgdKqYFJVAZo6FPK0HYe2hmSYVvqzVvrUxZJheUIpXAIl/yxloL7Z2U0A2B7VI6etsbAtulFOcjHoQ6Y+E9gjRDIOad0nzEG0JkS8pTz70hJOKiqRiP2xLaNUJFUX5HaKgq7Qgdy549oV9bkqBQvSEMHcaYBiUElLr2hH5tSUZs3BFMtbojaPl57aEzpt0doZhwvyGou8hFgnVRSmgzoz1K6Ciy7ghiUtaWIJfMu3jUrXeEY8z0KEGrymuEtIitlJAvOpASMMdtCOWitZZ60eNKc/naQ/eL5l3kYrhXQr9EqP6iP1QztN0RzJRCjr5xTUiLhMLGJnVlS43doSwyEBMC6qHDHYQ238yaUGfXdkNgjV9tUym7IWRSnFRbwrVZZ64Jgt29EhqpZpqf4tcNgfWiLSyeQUjNN+QUuEOnAl1LJtwrgZShrWC3K1xibxU1MSWwmXtrxry7y+RNt26ixqFbrAmCso8SmKzUPc7RRWjH3oOxJaGaQI/GloROCnoyZahQ6bPn+e8bAn3oMkcDNwSmOvRqTs94T48nDN2jXbqFLTY2D9Fx4rrbpm5KAZnmtSYInlnZ2YbMIwY31scEJvHmDjxsiC1nGnVquVp8KwEzO+9exUymN6KAmKM3G+lEokkQXP7R62FDHaZcc4+QgeBn+XGPAOFb3z2Ti8U0EBuhb2g3cIdKDxwN7QYIhQZXMWFjI7hKxvfQE9eMTQe+E5nLXMCDKvaQYuAZPJXVhzGDbs/P+Qwp5vwMIymxN13QNDTtMf10SDHnh9bEykZXQ1mBJRVuS3XqgDcEdlhSjrMuByHTJDeqTtjWRI+zKAGMTwscNs8cVSfcIdBKVwkCd/BUexxV53lbNyM1JcSMBKYyKwGGKFqZMoVWDss5CI1HvjaHkgeh0jH9yDdmrsnOAcgRtg5CoQcNRtVZkODZi+tm1JrncPQeAbc10bNRb1n5hsCGg0qAkmx0amyXOlbr2guywnVUFmaezsp7EbNLnjZBo0w9P4M2wKzzG9VRQQLTgEddC4TOSwfBmq802lsqAd6DEpgWL7I49kGLE8FzDW/ayD0CKFJK8MxaBWeEJfOUJZgfhoJEJ6nmcHyJlxlhyloPMzytpheMLNQnVoxOa6AVgzfuK0aljfiawfxixeAjpBWDj+ZWjERTxYpxtKoPM/jgds2gx8wWDE/rrQUjCf/0YsHo/HDdkhHZ8a4Fo131j8Qr/hWj0EPHawY9ZLFgZJpnVozECy8T4MY08VIIfZtXPhikx0T0Uhp4m7nezUwNCZuoDsP3KLMvvpssgdCngH03HRsCO6I0Ev45u8ZN52JKiljpYRQ5zojfECK/A2iSm89cRh0FhExlJK3UxBCYyCNmwhoTlUmlmzcdeaXWzZvetDrdvOlNq9PxTQfhHmcme0qgnUvHwUTovHPpsyM9CI3mFttXKIEd2RmdCxD2vZEhUK2gYRB4O671YLsWCtedGppG4MdcRwdZkEBbnTZFo4OQ5qc5dwkRCUwatl1wiDQzjj5bkLC5A4SZcVaQN+agOymByqpGKwieq3NtKgM3BDYrsfKFcGX4qFrf8DTIVOxQOy17Bz4Cnk0mx1gRNCfe2llBiJ63H/jzeio9L20Vqkq/pxuDV+i66PltK5kVrlzW+XhHnUu/jxBz3CPzNrOiOJV4Lq8mNdPvp6Sixh531zd4qgIZfKDfn67wG4kT8J6rIQs8DVoL/Dlm6Q9vH7e/fhd/+z/8EF7/9PoRfXr/Hw==);fillColor=#1ba1e2;strokeWidth=4;strokeColor=#006EAF;fontColor=#ffffff;" vertex="1" parent="1">
          <mxGeometry x="112" y="389.5" width="499" height="163.5" as="geometry" />
        </mxCell>
        <mxCell id="tzyq7luY2qThDf7m2LUu-18" value="" style="shape=stencil(lVjLbhsxDPwaXwlJ1POctv8RIG4TtE2CJH39fccwtInI9SC52bs7EiWSwyEPevV8e/14PKTw/PL08P345+7m5fagnw4p3d3fHp/uXvDroJ8PevX14en47enh1/3N+f/j9enL06+fD79PK/w944KEcAKl8O/8IIbt0Zcz4Mfd/RtAktY/BCh2hzGkjcvfd2lqv0/l8vcxSE4roMtgAJWSLaBUAqhSmwXERgDbCTdAk5rJpSYZyQJiIoAqwZwBRjK3dcnNAhIBaJh3sgGK1E4AOMOwgEQcrcU5LksjflDc+rCAGC8DcpBhDq2SyQ4Z65lgTdP3+4AmxewQpZNbKtE5Ls499wFZSlwBQZQcumyhNgF9SNHLgBrmrW8A5CCJ1uoSCIBAPF2L9UNvkplJWM+YVGWQQ7cgMVuAEpNakrQGXy/SSWi0LLVYgJJbak3CypQdSzCThvU0AJGY1ONM+Q2gc4l9QJawcmtH0pJoxSXGaAFKHNddisLIzkwaMtQCAmE+pIsh4x4kET8g5U0s4aIzqQ8glbzGUus0gcBzfT0DfF/ZGerkiA1Q5577gGbrQwO3ktBAgaqr45rSoogiqwaASk+YDwCTDy3SCvRGJ2yIrXS/F1EH97Uz6pVJ3nnsWil/+4sFuRUGcK6rWRK7WBccFUnKzoA6uuZcjVOkXQpwU+VQApjrUAR1TaECrmLR5Apv6ZyZNr9uAFRWphLxej1DqZxonNoAgBENuFTXrC6FBh94aBiTsijZoTlNViBPiB+Q9HX1dEEZI8yEHDby5KQ/iOOQX4b7Clf3SBddrzVz9Q3xYCoENBQjGsRmWM+QudT1AigXyjNwU1/DGzpQiUm49byGRlbq6eKILMNxJEWzY43MZWJ2NQjil3naS10dU0PtA1APVuaDHk/k0LDYhIY2UdZyjMmkG6DSKucbAuWaDAbEtT5opqGhTgApl1gwwEQr+iLWcqjTZBolsx1cn4VWjUWrOpmYBo1WdUSG7pGVLADSekupUV6CAXG9JTS0rKnBembskArV91ivrSSQ4GmScaf11tBISqcCeD1W1kAX/7EmP8U569gHRKsEUqA1Dq+NEjjNd8gO0dE9nrCOOvZZoDbAloP7AHRBa2jgCWO+6HrFWKf62Adk20FgCabv/fwHS1S2Q7KsgSU6m/9EyxqRS7joahwAgQldSxrYkjFlt1rmNDUjJ3AldNDWFc256b4ng1z43BBSo11onfO/18/Z5KpY9qqUT4udc0FkkZQpluogHljVdNKC9iNu2KOUeLOj0UkA+zwtzSSvNJIoftRLFYX73CpH/HgdQ58n2G/f2ZE1Hp3H3fr5Pw==);fillColor=#1ba1e2;strokeWidth=2;strokeColor=#006EAF;fontColor=#ffffff;dashed=1;" vertex="1" parent="1">
          <mxGeometry x="582" y="260" width="36" height="99" as="geometry" />
        </mxCell>
        <mxCell id="tzyq7luY2qThDf7m2LUu-20" value="&lt;font style=&quot;font-size: 14px&quot;&gt;&lt;b&gt;Host&lt;/b&gt;&lt;/font&gt;" style="text;html=1;strokeColor=none;fillColor=none;align=center;verticalAlign=middle;whiteSpace=wrap;rounded=0;dashed=1;" vertex="1" parent="1">
          <mxGeometry x="54" y="180" width="40" height="20" as="geometry" />
        </mxCell>
      </root>
    </mxGraphModel>
  </diagram>
</mxfile>
